<svg id="noun_cancel_1832167" xmlns="http://www.w3.org/2000/svg" width="24" height="24" viewBox="0 0 24 24">
  <g id="_02" data-name="02">
    <path id="Caminho_52" data-name="Caminho 52" d="M12,0A12,12,0,1,0,24,12,12,12,0,0,0,12,0Zm0,22A10,10,0,1,1,22,12,10,10,0,0,1,12,22Z" fill="#fff"/>
    <path id="Caminho_53" data-name="Caminho 53" d="M16.9,5.69,12,10.59,7.1,5.69A8.05,8.05,0,0,0,5.69,7.1l4.9,4.9-4.9,4.9A8.05,8.05,0,0,0,7.1,18.31l4.9-4.9,4.9,4.9a8.05,8.05,0,0,0,1.41-1.41L13.41,12l4.9-4.9A8.05,8.05,0,0,0,16.9,5.69Z" fill="#fff"/>
  </g>
</svg>
