<svg xmlns="http://www.w3.org/2000/svg" width="91.968" height="82" viewBox="0 0 91.968 82">
  <g id="noun_cart_2345547" transform="translate(-4.016 -9)">
    <g id="Grupo_62" data-name="Grupo 62" transform="translate(0 -952.362)">
      <path id="Caminho_54" data-name="Caminho 54" d="M7.016,961.362a3,3,0,0,0,0,6H18.578l10.313,48.656c.408,1.832,1.608,3.356,3.125,3.344h50a3,3,0,1,0,0-6H34.453l-1.281-6H86.016a3.094,3.094,0,0,0,2.906-2.344l7-30a3.139,3.139,0,0,0-2.906-3.656H25.578l-1.625-7.625a3.1,3.1,0,0,0-2.937-2.375Zm19.813,16H42.453l1.5,9H28.735Zm21.75,0H67.453l-1.5,9H50.078Zm25,0H89.235l-2.094,9H72.078Zm-43.562,15H44.953l1.5,9H31.922Zm21.063,0H64.953l-1.5,9H52.578Zm20,0H85.735l-2.094,9H69.578Zm-28.062,31a10,10,0,1,0,10,10,10.046,10.046,0,0,0-10-10Zm28,0a10,10,0,1,0,10,10,10.046,10.046,0,0,0-10-10Zm-28,6a4,4,0,1,1-4,4A3.955,3.955,0,0,1,43.016,1029.362Zm28,0a4,4,0,1,1-4,4A3.955,3.955,0,0,1,71.016,1029.362Z" fill="#fff"/>
    </g>
  </g>
</svg>
