<svg id="facebook" xmlns="http://www.w3.org/2000/svg" width="512" height="512" viewBox="0 0 512 512">
  <g id="Grupo_37" data-name="Grupo 37">
    <path id="Caminho_30" data-name="Caminho 30" d="M452,0H60A60.068,60.068,0,0,0,0,60V452a60.068,60.068,0,0,0,60,60H452a60.068,60.068,0,0,0,60-60V60A60.068,60.068,0,0,0,452,0Zm20,452a20.023,20.023,0,0,1-20,20H338V309h61.79L410,247H338V204a29.5,29.5,0,0,1,30-30h41V112H368a91.985,91.985,0,0,0-91.978,92.174V247H216v62h60.022V472H60a20.023,20.023,0,0,1-20-20V60A20.023,20.023,0,0,1,60,40H452a20.023,20.023,0,0,1,20,20Z" fill="#fff"/>
  </g>
</svg>
