<svg id="Grupo_1" data-name="Grupo 1" xmlns="http://www.w3.org/2000/svg" width="20.171" height="36.026" viewBox="0 0 20.171 36.026">
  <rect id="Retângulo_5" data-name="Retângulo 5" width="20.171" height="36.026" fill="none"/>
  <path id="Subtração_1" data-name="Subtração 1" d="M9.33,18.623h0a2.914,2.914,0,0,1-.7-.922.047.047,0,0,1,.018-.036.048.048,0,0,0,.019-.037l.074-.111a.8.8,0,0,1,.055-.092.818.818,0,0,0,.055-.092.28.28,0,0,1,.074-.111A.523.523,0,0,0,9,17.083c.012-.028.025-.058.037-.082l.037-.111,0-.015c.035-.1.07-.213.106-.354a1.04,1.04,0,0,0,.035-.15.566.566,0,0,1,.039-.145v-.111A.464.464,0,0,1,9.275,16a.464.464,0,0,0,.019-.111v-.959l-.037-.147a.224.224,0,0,0-.036-.148l-.037-.148a.285.285,0,0,0-.019-.074.285.285,0,0,1-.019-.074.132.132,0,0,0-.014-.048.241.241,0,0,1-.023-.1v-.036l.071-.071.151-.15.221.221V14.2a.132.132,0,0,1-.019.056.131.131,0,0,0-.018.055.264.264,0,0,1-.014.063.445.445,0,0,0-.023.122c0,.074,0,.074-.036.111a.273.273,0,0,1-.018.092.275.275,0,0,0-.019.093v1A.546.546,0,0,0,9.441,16c.024.049.016.066.008.082a.06.06,0,0,0-.008.029.69.69,0,0,0,.074.295c.037.109.074.221.111.369l.037.111L9.717,17l.055.111.074.111a.8.8,0,0,0,.055.091.778.778,0,0,1,.056.093.2.2,0,0,1,.037.055.2.2,0,0,0,.037.055l.037.074a2.5,2.5,0,0,1-.737,1.033Zm2.433-.332h0a2.575,2.575,0,0,1-1.032-.847,3.142,3.142,0,0,1-.553-1.106.533.533,0,0,1-.037-.129.528.528,0,0,0-.037-.129,2.9,2.9,0,0,1,.185-1.77l0,0a2.715,2.715,0,0,1,.257-.439l.01,0a2.76,2.76,0,0,1,.432.253,2.918,2.918,0,0,1,1.106,1.7,3.43,3.43,0,0,1,.111,1.217,3.021,3.021,0,0,1-.443,1.253Zm-4.867,0h0a2.552,2.552,0,0,1-.443-1.253,3.561,3.561,0,0,1,.074-1.254,3.293,3.293,0,0,1,.738-1.364l.036-.037c.055-.055.111-.1.165-.147s.111-.093.167-.149a2.732,2.732,0,0,1,.436-.255l.007,0a2.734,2.734,0,0,1,.258.443,3.075,3.075,0,0,1,.148,2.065,3.143,3.143,0,0,1-.553,1.106,2.575,2.575,0,0,1-1.032.847ZM4.72,17.406h0a2.966,2.966,0,0,1-.147-1.143l.074-.074.111-.074a.818.818,0,0,0,.092-.056A.82.82,0,0,1,4.942,16l.111-.074a.363.363,0,0,0,.092-.074.363.363,0,0,1,.092-.074l.111-.074a.866.866,0,0,0,.258-.258l.073-.074.148-.148.074-.074.148-.184a.2.2,0,0,0,.037-.056.2.2,0,0,1,.036-.055.522.522,0,0,0,.056-.075.53.53,0,0,1,.054-.073.2.2,0,0,0,.037-.055.2.2,0,0,1,.037-.055c-.025.049-.054.1-.082.147a1.2,1.2,0,0,0-.14.3c0,.037,0,.037-.037.074-.016.041-.033.079-.049.117a2.057,2.057,0,0,0-.136.4,1.124,1.124,0,0,0-.039.184c-.009.057-.018.117-.035.185v.111a.461.461,0,0,1-.018.11.464.464,0,0,0-.019.111v.626a2.807,2.807,0,0,1-1.032.443Zm9.256-.037h0a2.558,2.558,0,0,1-1.032-.442V16.3a.467.467,0,0,0-.037-.221v-.111a1.1,1.1,0,0,1-.039-.187c-.009-.056-.017-.115-.034-.182a2.127,2.127,0,0,0-.185-.516l-.074-.037q-.111-.221-.221-.442l-.037-.074a1.625,1.625,0,0,0-.3-.406l-.036-.074c-.036-.036-.071-.074-.108-.116a1.891,1.891,0,0,0-.261-.253,1.057,1.057,0,0,0,.034-.148.567.567,0,0,1,.039-.148.64.64,0,0,1,.231.051l.065.023V13.5a.136.136,0,0,0,.036.111.273.273,0,0,0,.019.092.273.273,0,0,1,.019.092.131.131,0,0,0,.018.055.132.132,0,0,1,.019.056.619.619,0,0,0,.074.184c.037.074.037.074.037.111a.585.585,0,0,0,.069.175l0,.009.037.111a.277.277,0,0,1,.074.148c0,.036.038.074.074.111a.53.53,0,0,1,.054.073.522.522,0,0,0,.056.075.192.192,0,0,1,.036.055.194.194,0,0,0,.037.056.492.492,0,0,1,.049.063.894.894,0,0,0,.1.121l.074.074.221.221.258.258.111.074a.363.363,0,0,1,.092.074.363.363,0,0,0,.092.074l.111.074.184.111.111.074.074.036a3,3,0,0,1-.147,1.106Zm1.7-1.466a2.866,2.866,0,0,1-1.105-.23,3.852,3.852,0,0,1-1.032-.7.99.99,0,0,1-.068-.077.365.365,0,0,0-.116-.107,3.058,3.058,0,0,1-.738-2.139h.516a3.04,3.04,0,0,1,1.807.922,3.382,3.382,0,0,1,.7,1.032,2.2,2.2,0,0,1,.258,1.291C15.818,15.9,15.743,15.9,15.672,15.9Zm-12.684,0c-.074,0-.148,0-.222-.009a2.821,2.821,0,0,1,.221-1.328,3.88,3.88,0,0,1,.7-1.032,3.61,3.61,0,0,1,1.291-.811c.076-.019.164-.039.248-.057s.16-.036.231-.053h.516v.516a4.1,4.1,0,0,1-.142.593l-.042.144a2.774,2.774,0,0,1-.553.885.989.989,0,0,0-.068.077.366.366,0,0,1-.116.107,2.81,2.81,0,0,1-1,.738A2.559,2.559,0,0,1,2.988,15.9Zm3.376-1.387h0a.169.169,0,0,0,.017-.059l.037-.111a.641.641,0,0,0,.036-.091.627.627,0,0,1,.037-.093.136.136,0,0,0,.037-.111.585.585,0,0,1,.069-.175l0-.009a.112.112,0,0,1,.023-.076.055.055,0,0,0,.014-.035.273.273,0,0,1,.019-.092.273.273,0,0,0,.019-.092.134.134,0,0,1,.018-.056.132.132,0,0,0,.018-.055v-.037l.064-.023a.641.641,0,0,1,.231-.052c.008.023.015.044.022.064a.635.635,0,0,1,.051.231c-.036.036-.075.071-.116.108a1.862,1.862,0,0,0-.253.261l-.036.074a1.625,1.625,0,0,0-.3.406ZM16.545,14.1c-.1,0-.19,0-.282-.014a.048.048,0,0,0-.018-.036.048.048,0,0,1-.019-.037l-.074-.111a.822.822,0,0,0-.055-.092.821.821,0,0,1-.055-.092l-.074-.147a.363.363,0,0,0-.074-.092.363.363,0,0,1-.074-.092.2.2,0,0,1-.037-.055.2.2,0,0,0-.037-.055.868.868,0,0,0-.258-.258l-.111-.111,0,0-.106-.106-.074-.074a.509.509,0,0,0-.062-.049.9.9,0,0,1-.122-.1L14.9,12.5l-.147-.036-.111-.074-.148-.074-.111-.037-.148-.074-.111-.074-.185-.037-.111-.037-.184-.037-.111-.036H13.5l-.022-.063a.639.639,0,0,1-.052-.232l.067-.023a.636.636,0,0,1,.228-.05h.037a1.738,1.738,0,0,0,.369.369l.074.036a1.612,1.612,0,0,0,.406.3l.074.037.443.221.036.037.122.05a2.059,2.059,0,0,0,.394.134c.074.018.158.037.239.055s.167.037.24.055h.074a1.8,1.8,0,0,0,.443.037h.258a2.806,2.806,0,0,1,.442,1.032A2.68,2.68,0,0,1,16.545,14.1Zm-14.378,0a2.39,2.39,0,0,1-.877-.16,2.808,2.808,0,0,1,.443-1.033h.258a1.8,1.8,0,0,0,.443-.037h.111c.051-.013.105-.021.163-.029a1.046,1.046,0,0,0,.316-.081,3.212,3.212,0,0,0,.548-.182l0,0,.074-.037.147-.074.3-.148.074-.037a1.624,1.624,0,0,0,.406-.295l.074-.037c.035-.035.074-.07.114-.106a1.873,1.873,0,0,0,.255-.263,1.052,1.052,0,0,0,.149.035.561.561,0,0,1,.146.039.636.636,0,0,1-.05.228c-.008.021-.015.043-.023.067H5.2l-.111.037A.277.277,0,0,0,5,12a.277.277,0,0,1-.092.018l-.111.037-.184.074-.111.036-.148.074-.185.074-.147.074-.111.074-.148.111-.111.074a.634.634,0,0,0-.18.143l0,0-.036.037-.222.221-.258.258a.191.191,0,0,0-.037.055.2.2,0,0,1-.037.055.366.366,0,0,1-.074.092.366.366,0,0,0-.074.092l-.111.111a.779.779,0,0,1-.056.093.8.8,0,0,0-.055.091l-.037.111-.036.074C2.344,14.1,2.255,14.1,2.167,14.1Zm14.465-1.892a3.131,3.131,0,0,1-.811-.112,3.276,3.276,0,0,1-1.7-1.106,2.763,2.763,0,0,1-.258-.442,2.756,2.756,0,0,1,.442-.258,3.114,3.114,0,0,1,1.174-.226,3.193,3.193,0,0,1,.855.116,3.134,3.134,0,0,1,1.106.553,2.57,2.57,0,0,1,.848,1.033,3.412,3.412,0,0,1-1.217.405A2.466,2.466,0,0,1,16.632,12.208ZM1.89,12.183h0c-.1,0-.2,0-.3-.014a3.03,3.03,0,0,1-1.254-.442,2.576,2.576,0,0,1,.848-1.033,3.141,3.141,0,0,1,1.106-.553,3.2,3.2,0,0,1,.855-.115,3.107,3.107,0,0,1,1.173.226l.007,0a2.76,2.76,0,0,1,.436.255l0,.007a2.732,2.732,0,0,1-.255.436,2.917,2.917,0,0,1-1.7,1.106A3.475,3.475,0,0,1,1.89,12.183ZM1,10.031H1a3.446,3.446,0,0,1-1-.737,2.909,2.909,0,0,1,.922-.7L1,8.63a.191.191,0,0,0,.055.036.194.194,0,0,1,.056.037.843.843,0,0,1,.092.055.842.842,0,0,0,.092.055l.111.074.111.056L1.623,9l.111.036c.109.036.221.074.369.111.077.019.165.039.25.058s.159.035.229.053h.074a1.8,1.8,0,0,0,.442.037h.369a1.016,1.016,0,0,0,.166-.019A1.016,1.016,0,0,1,3.8,9.256l.111-.036a.524.524,0,0,0,.219-.073l.112-.037.074-.037.147.147.074.074-.073.074-.148.148H4.278l-.111-.036-.184-.037L3.872,9.4a.273.273,0,0,1-.092-.019.273.273,0,0,0-.092-.019H2.766a.467.467,0,0,0-.221.037H2.47a.691.691,0,0,0-.295.074l-.015,0c-.1.035-.213.07-.354.106L1.7,9.625l-.221.111-.111.074L1.18,9.92l-.111.074L1,10.031Zm16.742-.037h0l-.11-.036a.2.2,0,0,0-.055-.037.191.191,0,0,1-.055-.037.822.822,0,0,1-.092-.055.822.822,0,0,0-.092-.055L17.221,9.7,17,9.588l-.111-.037c-.117-.039-.226-.075-.369-.111s-.3-.074-.479-.111h-.074a1.645,1.645,0,0,0-.4-.037,1.5,1.5,0,0,0,.324-.037h.074A2.078,2.078,0,0,0,16.41,9.2l.074-.015c.116-.039.224-.074.369-.111l.111-.037.222-.111.111-.074.184-.111.111-.074.074-.036a2.61,2.61,0,0,1,.885.7,2.078,2.078,0,0,1-.811.663Zm-3.466-.479h-.037a.972.972,0,0,0-.221-.184l.148-.148.074-.074.074.036.111.037.222.074h.074a1.021,1.021,0,0,0,.332.037l-.184.074-.148.037-.184.037-.148.037-.11.036Zm1.21-.917a3.108,3.108,0,0,1-1.173-.226l-.01,0a2.76,2.76,0,0,1-.433-.253l0-.007a2.711,2.711,0,0,1,.255-.435,3.181,3.181,0,0,1,1.7-1.143,2.886,2.886,0,0,1,.83-.125,2.7,2.7,0,0,1,.277.014h.147a2.9,2.9,0,0,1,1.217.479,2.564,2.564,0,0,1-.848,1.032,3.135,3.135,0,0,1-1.106.553A3.2,3.2,0,0,1,15.481,8.6Zm-12.34,0h0a3.2,3.2,0,0,1-.855-.115A3.133,3.133,0,0,1,1.18,7.928,2.57,2.57,0,0,1,.332,6.9a2.549,2.549,0,0,1,1.254-.442c.1-.009.2-.014.309-.014a3.205,3.205,0,0,1,.908.125A3.274,3.274,0,0,1,4.5,7.671a2.732,2.732,0,0,1,.255.436l0,.007a2.76,2.76,0,0,1-.436.255l-.007,0A3.106,3.106,0,0,1,3.142,8.6Zm10.576-1.59h0a1.043,1.043,0,0,0-.149-.035.566.566,0,0,1-.145-.039.639.639,0,0,1,.052-.232l.022-.063h.037l.111-.037a.277.277,0,0,0,.092-.018.276.276,0,0,1,.092-.018l.111-.037.185-.074.111-.037.148-.074.111-.037.148-.074.111-.074.147-.111.111-.074a.654.654,0,0,0,.184-.148l.074-.074.222-.221.258-.258a.191.191,0,0,0,.037-.055.2.2,0,0,1,.037-.055.366.366,0,0,1,.074-.092.366.366,0,0,0,.074-.092L16,4.9a.823.823,0,0,1,.055-.091.8.8,0,0,0,.056-.093l.074-.148a.048.048,0,0,1,.018-.037.048.048,0,0,0,.018-.036c.091-.009.18-.013.267-.013a2.382,2.382,0,0,1,.877.161,2.806,2.806,0,0,1-.442,1.032h-.553a.627.627,0,0,0-.258.037H16a1.117,1.117,0,0,1-.184.039c-.057.009-.117.018-.185.035-.171.068-.365.146-.516.221l-.037.037-.3.148-.147.074-.074.037a1.516,1.516,0,0,0-.278.194c-.04.033-.082.067-.127.1l-.074.037a1.739,1.739,0,0,0-.369.368Zm-8.777,0H4.9a1.738,1.738,0,0,0-.369-.369L4.462,6.6a1.624,1.624,0,0,0-.406-.295l-.074-.037-.3-.148L3.54,6.048,3.5,6.011,3.38,5.96a2,2,0,0,0-.393-.133,1.873,1.873,0,0,0-.479-.074H2.36A1.05,1.05,0,0,1,2.2,5.736a1.333,1.333,0,0,0-.211-.02H1.659a2.813,2.813,0,0,1-.442-1.033A2.907,2.907,0,0,1,2.2,4.49c.063,0,.129,0,.194.01a.048.048,0,0,0,.018.036.048.048,0,0,1,.019.037l.074.111a.8.8,0,0,0,.055.091.778.778,0,0,1,.056.093l.074.111a.359.359,0,0,0,.074.092.359.359,0,0,1,.074.092.2.2,0,0,1,.037.055.191.191,0,0,0,.037.055.861.861,0,0,0,.258.258l.221.221.074.074a.516.516,0,0,0,.061.047.9.9,0,0,1,.124.1l.111.074.148.111.111.074.147.074.111.037.147.074.111.037.185.074.111.037.184.036.111.037h.036c.008.023.015.044.023.064a.641.641,0,0,1,.052.231l-.066.023A.641.641,0,0,1,4.942,7.007Zm8.187-1h-.516V5.495a3.043,3.043,0,0,1,.922-1.807,2.8,2.8,0,0,1,1.032-.738,2.571,2.571,0,0,1,1.071-.231c.076,0,.148,0,.22.009a2.82,2.82,0,0,1-.222,1.328,3.864,3.864,0,0,1-.7,1.033,1.014,1.014,0,0,1-.077.068.37.37,0,0,0-.107.116,3,3,0,0,1-1.623.738ZM6.011,5.974H5.494a3.044,3.044,0,0,1-1.807-.922,3.408,3.408,0,0,1-.7-1.032,2.263,2.263,0,0,1-.258-1.291c.074-.006.146-.009.22-.009a2.861,2.861,0,0,1,1.108.231,3.864,3.864,0,0,1,1.033.7,1.014,1.014,0,0,1,.068.077.37.37,0,0,0,.116.107,3.24,3.24,0,0,1,.738,1.623v.516Zm.922-.664h0A.638.638,0,0,1,6.7,5.26l-.067-.023V5.2A.136.136,0,0,0,6.6,5.089.277.277,0,0,0,6.583,5,.279.279,0,0,1,6.564,4.9a.131.131,0,0,0-.018-.055.132.132,0,0,1-.019-.056.634.634,0,0,0-.074-.184c-.036-.074-.036-.074-.036-.111a.6.6,0,0,0-.072-.181l0,0L6.306,4.2c-.014-.028-.028-.05-.04-.07a.164.164,0,0,1-.034-.078A.192.192,0,0,1,6.2,4a.194.194,0,0,0-.037-.056A.493.493,0,0,1,6.1,3.872.492.492,0,0,0,6.048,3.8a.2.2,0,0,1-.037-.055.191.191,0,0,0-.037-.055.512.512,0,0,1-.047-.061.887.887,0,0,0-.1-.123L5.753,3.43l-.221-.221L5.273,2.95l-.111-.074A.359.359,0,0,1,5.07,2.8a.364.364,0,0,0-.092-.074L4.9,2.618,4.72,2.508l-.074-.074L4.536,2.4a2.393,2.393,0,0,1,.148-1.143A2.564,2.564,0,0,1,5.716,1.7v.627a.474.474,0,0,0,.036.221v.111a1.1,1.1,0,0,1,.039.186c.009.057.018.116.035.183a2.136,2.136,0,0,0,.184.516.127.127,0,0,1,.037.074l.148.3.074.147.037.074a1.516,1.516,0,0,0,.194.278c.033.04.067.082.1.127l.037.074a1.739,1.739,0,0,0,.369.369v.037a1.039,1.039,0,0,0-.035.15.568.568,0,0,1-.038.145Zm4.757-.074h0l-.022-.063a.639.639,0,0,1-.052-.232c.036-.036.075-.071.116-.108a1.862,1.862,0,0,0,.253-.261l.036-.074a1.625,1.625,0,0,0,.3-.406.048.048,0,0,1,.019-.037.048.048,0,0,0,.018-.036l.025-.05.2-.393.036-.036c.017-.041.033-.081.049-.12a2.043,2.043,0,0,0,.135-.4,1.1,1.1,0,0,0,.039-.187c.009-.057.017-.115.034-.182V2.545a.459.459,0,0,1,.014-.076.732.732,0,0,0,.023-.145V1.659a2.806,2.806,0,0,1,1.032-.442,2.955,2.955,0,0,1,.148,1.143l-.074.074-.111.074a.8.8,0,0,0-.091.055.778.778,0,0,1-.093.056l-.111.074a.359.359,0,0,0-.092.074.364.364,0,0,1-.092.074l-.111.074a.861.861,0,0,0-.258.258l-.146.146-.075.075-.074.074,0,0a.8.8,0,0,0-.143.18l-.074.074a.781.781,0,0,0-.109.181l0,0v.074a.28.28,0,0,0-.074.185l-.074.074-.074.184-.037.111a.639.639,0,0,0-.037.093.641.641,0,0,1-.036.091.112.112,0,0,1-.023.076.055.055,0,0,0-.014.035.262.262,0,0,1-.014.062.444.444,0,0,0-.023.122c0,.074,0,.074-.036.111v.036l-.064.023A.642.642,0,0,1,11.69,5.237Zm-1.143-.443h0a2.689,2.689,0,0,1-.258-.442,3.306,3.306,0,0,1-.111-2.065,3.142,3.142,0,0,1,.553-1.106A2.578,2.578,0,0,1,11.764.332a2.556,2.556,0,0,1,.443,1.254A3.634,3.634,0,0,1,12.1,2.84a3.277,3.277,0,0,1-1.106,1.7,2.715,2.715,0,0,1-.439.257h0ZM8.113,4.72h0a2.73,2.73,0,0,1-.442-.258,2.831,2.831,0,0,1-1.106-1.7,3.279,3.279,0,0,1-.111-1.217A3.037,3.037,0,0,1,6.9.3a2.572,2.572,0,0,1,1.032.848,3.135,3.135,0,0,1,.553,1.106,3.2,3.2,0,0,1-.111,2.029l0,.01a2.762,2.762,0,0,1-.253.432ZM9.33,4.683h0l-.11-.11,0,0-.106-.106V4.352l.037-.111a.285.285,0,0,1,.019-.074.285.285,0,0,0,.019-.074.134.134,0,0,1,.037-.111.266.266,0,0,1,.014-.062A.448.448,0,0,0,9.256,3.8V2.692a.553.553,0,0,0-.036-.221c-.025-.049-.016-.066-.008-.082A.058.058,0,0,0,9.22,2.36a.692.692,0,0,0-.074-.3c-.019-.055-.037-.121-.055-.184s-.037-.129-.055-.184l-.074-.074a.523.523,0,0,0-.073-.22l-.074-.112A.842.842,0,0,0,8.758,1.2.843.843,0,0,1,8.7,1.106a.131.131,0,0,0-.019-.055A.131.131,0,0,1,8.666,1L8.629.922A2.917,2.917,0,0,1,9.33,0a2.923,2.923,0,0,1,.7.922.048.048,0,0,1-.019.037A.048.048,0,0,0,9.994,1l-.074.111a.823.823,0,0,1-.055.091.8.8,0,0,0-.056.093.278.278,0,0,1-.074.111.547.547,0,0,0-.073.139c-.012.028-.025.058-.037.083l-.036.111c-.036.109-.074.221-.111.369a1.057,1.057,0,0,0-.034.147A.562.562,0,0,1,9.4,2.4v.111a.464.464,0,0,1-.019.111.461.461,0,0,0-.018.11v.959l.037.147a.223.223,0,0,0,.037.148l.036.148A.285.285,0,0,0,9.5,4.2a.285.285,0,0,1,.019.074.131.131,0,0,0,.014.048.241.241,0,0,1,.023.1v.037L9.4,4.609l-.074.074Z" transform="translate(0.942 0.798)" fill="#f6e93b"/>
  <g id="noun_Sunflower_3573786" transform="translate(0.212 19.822)">
    <path id="Caminho_1" data-name="Caminho 1" d="M32.353,32.93a5.136,5.136,0,0,0-.7,5.273c-.184-.148-.406-.3-.59-.443a2.363,2.363,0,0,0-.774-2.766c-1.438-1.069-4.315-.922-7.375,1.881h0l-.037.037a.129.129,0,0,0-.037.074h0V37.1h0v.111h0c0,.037,0,.037.037.037a.129.129,0,0,1,.037.074h0a8.1,8.1,0,0,0,5.605,2.913,3.107,3.107,0,0,0,1.291-.258,1.928,1.928,0,0,0,1.106-1.438,6.605,6.605,0,0,1,1.7,1.807,10.256,10.256,0,0,1,1.069,3.466,5.546,5.546,0,0,0,0,1.106v.037A8.525,8.525,0,0,1,32.5,48.6a.355.355,0,1,0,.627.332h0a8.755,8.755,0,0,0,1.291-5.089,7.914,7.914,0,0,1,.885-2.876,1.86,1.86,0,0,0,1.549.848h.037c1.7,0,4.13-2.065,5.31-5.532h0v-.148h0v-.111h0l-.037-.037-.037-.037h0a.129.129,0,0,0-.074-.037l-.037-.037h0c-3.946-1.291-6.6-.184-7.523,1.438a2.45,2.45,0,0,0,.369,2.95A7.322,7.322,0,0,0,34.086,42a2.89,2.89,0,0,0-.184-.516V41.3a5.2,5.2,0,0,0-.7-1.438l-.148-.3c-1.069-2.286-1.579-3.821-.2-6.215Zm-2.876,6.453c-1.18.553-3.614-.074-5.679-1.991a8.52,8.52,0,0,1,6.417.738A1.265,1.265,0,0,1,29.477,39.383Zm.959-1.954a9,9,0,0,0-5.863-.885c2.286-1.586,4.278-1.623,5.273-.885A1.632,1.632,0,0,1,30.435,37.429Zm6.417,3.725h0a1.152,1.152,0,0,1-1.143-.848,8.8,8.8,0,0,1,5.532-3.614C40.134,39.494,38.18,41.153,36.852,41.153Zm-1.807-3.393c.664-1.18,2.471-1.991,5.2-1.512a9.583,9.583,0,0,0-5.052,3.5,1.855,1.855,0,0,1-.148-1.991Z" transform="translate(-22.839 -32.93)" fill="#4d813f"/>
  </g>
  <path id="Subtração_2" data-name="Subtração 2" d="M4.054,8.108A4.054,4.054,0,1,1,8.108,4.054,4.059,4.059,0,0,1,4.054,8.108Zm0-2.081a.37.37,0,0,0-.369.369V7.17a.369.369,0,1,0,.738,0V6.4A.37.37,0,0,0,4.054,6.027Zm-1.178-.31a.318.318,0,0,0-.3.2l-.405.7a.344.344,0,0,0-.035.287.315.315,0,0,0,.183.192.356.356,0,0,0,.182.052.319.319,0,0,0,.3-.2l.405-.664a.411.411,0,0,0-.148-.516A.355.355,0,0,0,2.876,5.717Zm2.33-.02a.352.352,0,0,0-.156.035.376.376,0,0,0-.148.479l.406.7a.374.374,0,0,0,.323.183.348.348,0,0,0,.157-.036.372.372,0,0,0,.148-.479l-.406-.7A.374.374,0,0,0,5.206,5.7Zm.878-.828a.317.317,0,0,0-.3.2.344.344,0,0,0-.035.287.316.316,0,0,0,.183.193l.664.405a.355.355,0,0,0,.183.052.317.317,0,0,0,.3-.2.353.353,0,0,0,.037-.286.408.408,0,0,0-.185-.23l-.664-.369A.357.357,0,0,0,6.084,4.869ZM2,4.848a.35.35,0,0,0-.156.035l-.7.406a.371.371,0,0,0-.147.479.375.375,0,0,0,.323.183.354.354,0,0,0,.156-.035l.664-.406a.334.334,0,0,0,.217-.2.327.327,0,0,0-.032-.282A.374.374,0,0,0,2,4.848ZM4.054,2.524A1.549,1.549,0,1,0,5.6,4.073,1.55,1.55,0,0,0,4.054,2.524Zm2.36,1.143a.369.369,0,1,0,0,.738h.774a.369.369,0,0,0,0-.738Zm-5.495,0a.369.369,0,1,0,0,.738h.775a.349.349,0,0,0,.369-.369.37.37,0,0,0-.369-.369ZM6.755,2.119a.353.353,0,0,0-.157.036l-.7.406a.371.371,0,0,0-.148.479.387.387,0,0,0,.332.184.333.333,0,0,0,.185-.037l.664-.405A.37.37,0,0,0,7.078,2.3.373.373,0,0,0,6.755,2.119ZM1.327,2.066a.318.318,0,0,0-.3.2.378.378,0,0,0,.111.516l.664.405a.277.277,0,0,0,.184.037.37.37,0,0,0,.369-.369.386.386,0,0,0-.184-.332l-.664-.406A.355.355,0,0,0,1.327,2.066ZM5.6.96a.317.317,0,0,0-.3.2L4.9,1.823a.353.353,0,0,0-.041.269.4.4,0,0,0,.189.247.352.352,0,0,0,.183.052.317.317,0,0,0,.3-.2l.406-.7A.344.344,0,0,0,5.97,1.2a.317.317,0,0,0-.183-.193A.356.356,0,0,0,5.6.96ZM2.477.976a.35.35,0,0,0-.156.035.371.371,0,0,0-.148.479l.405.7a.374.374,0,0,0,.323.183.348.348,0,0,0,.157-.036.37.37,0,0,0,.148-.479l-.405-.7A.374.374,0,0,0,2.477.976ZM4.054.569a.37.37,0,0,0-.369.369v.775a.369.369,0,0,0,.738,0V.938A.37.37,0,0,0,4.054.569Zm0,4.278a.811.811,0,1,1,.811-.812A.822.822,0,0,1,4.054,4.847Z" transform="translate(6.163 6.056)" fill="#964b00"/>
</svg>
