<svg xmlns="http://www.w3.org/2000/svg" width="32.341" height="57.76" viewBox="0 0 32.341 57.76">
  <g id="noun_Sunflower_3573786" transform="translate(-148.524 -1.15)">
    <path id="Caminho_1" data-name="Caminho 1" d="M55,17.616a.64.64,0,0,0,0-.65,6.278,6.278,0,0,0-1.715-1.6,5.238,5.238,0,0,0,1.242-1.951.667.667,0,0,0-.177-.65A4.626,4.626,0,0,0,52.283,11.7a4.785,4.785,0,0,0,.709-2.188.728.728,0,0,0-.3-.591,5.019,5.019,0,0,0-2.247-.532,6.074,6.074,0,0,0,.118-2.306.642.642,0,0,0-.473-.473,5.082,5.082,0,0,0-2.306.118,5.019,5.019,0,0,0-.532-2.247.518.518,0,0,0-.591-.3,4.785,4.785,0,0,0-2.188.709A5.311,5.311,0,0,0,43.414,1.83a.471.471,0,0,0-.591-.118,5.238,5.238,0,0,0-1.951,1.242,5.536,5.536,0,0,0-1.6-1.715.641.641,0,0,0-.65,0,6.278,6.278,0,0,0-1.6,1.715,4.592,4.592,0,0,0-1.951-1.242.667.667,0,0,0-.65.177,4.625,4.625,0,0,0-1.064,2.069,4.785,4.785,0,0,0-2.188-.709.728.728,0,0,0-.591.3,4.058,4.058,0,0,0-.591,2.188,6.074,6.074,0,0,0-2.306-.118.642.642,0,0,0-.473.473,5.082,5.082,0,0,0,.118,2.306,5.019,5.019,0,0,0-2.247.532.518.518,0,0,0-.3.591A4.785,4.785,0,0,0,25.5,11.7a5.311,5.311,0,0,0-2.069,1.064.471.471,0,0,0-.118.591,5.238,5.238,0,0,0,1.242,1.951,5.536,5.536,0,0,0-1.715,1.6.641.641,0,0,0,0,.65,5.536,5.536,0,0,0,1.715,1.6A5.238,5.238,0,0,0,23.312,21.1a.667.667,0,0,0,.177.65,4.625,4.625,0,0,0,2.069,1.064,4.785,4.785,0,0,0-.71,2.188.728.728,0,0,0,.3.591,5.019,5.019,0,0,0,2.247.532,6.074,6.074,0,0,0-.118,2.306.642.642,0,0,0,.473.473,6.046,6.046,0,0,0,2.306-.118,5.019,5.019,0,0,0,.532,2.247.621.621,0,0,0,.532.3h.059a4.785,4.785,0,0,0,2.188-.71,5.311,5.311,0,0,0,1.064,2.069.639.639,0,0,0,.414.177.217.217,0,0,0,.177-.059A5.238,5.238,0,0,0,36.97,31.57a5.974,5.974,0,0,0,1.123,1.36,8.234,8.234,0,0,0-1.123,8.455c-.3-.236-.65-.473-.946-.709a3.789,3.789,0,0,0-1.242-4.434c-2.306-1.715-6.918-1.478-11.825,3.015h0l-.059.059a.206.206,0,0,0-.059.118h0v.177h0v.177h0c0,.059,0,.059.059.059a.206.206,0,0,1,.059.118h0c2.9,3.193,6.385,4.671,8.987,4.671a4.981,4.981,0,0,0,2.069-.414,3.091,3.091,0,0,0,1.774-2.306,10.591,10.591,0,0,1,2.72,2.9,16.443,16.443,0,0,1,1.715,5.558,8.891,8.891,0,0,0,0,1.774V52.2a13.669,13.669,0,0,1-1.892,5.853.569.569,0,1,0,1.005.532h0A14.036,14.036,0,0,0,41.4,50.431a12.688,12.688,0,0,1,1.419-4.612,2.982,2.982,0,0,0,2.483,1.36h.059c2.72,0,6.622-3.311,8.514-8.869h0v-.236h0V37.9h0l-.059-.059-.059-.059h0a.206.206,0,0,0-.118-.059l-.059-.059h0c-6.326-2.069-10.583-.3-12.061,2.306a3.928,3.928,0,0,0,.591,4.73,11.739,11.739,0,0,0-1.242,2.779,4.634,4.634,0,0,0-.3-.828v-.3a8.344,8.344,0,0,0-1.123-2.306l-.236-.473c-1.715-3.666-3.015-6.5.059-10.406a4.979,4.979,0,0,0,1.478-1.655,4.447,4.447,0,0,0,2.01,1.242c.059,0,.118.059.177.059a.46.46,0,0,0,.414-.177,4.625,4.625,0,0,0,1.064-2.069,4.785,4.785,0,0,0,2.188.709h.059a.621.621,0,0,0,.532-.3,5.019,5.019,0,0,0,.532-2.247,5.368,5.368,0,0,0,1.36.177,5.086,5.086,0,0,0,.946-.059.642.642,0,0,0,.473-.473,5.082,5.082,0,0,0-.118-2.306,5.019,5.019,0,0,0,2.247-.532.518.518,0,0,0,.3-.591,4.785,4.785,0,0,0-.709-2.188A5.311,5.311,0,0,0,54.293,21.7a.6.6,0,0,0,.177-.591,5.238,5.238,0,0,0-1.242-1.951A4.925,4.925,0,0,0,55,17.616ZM33.481,43.276c-1.892.887-5.794-.118-9.105-3.193a13.661,13.661,0,0,1,10.288,1.182A2.028,2.028,0,0,1,33.481,43.276Zm1.537-3.134a14.425,14.425,0,0,0-9.4-1.419c3.666-2.542,6.858-2.6,8.455-1.419A2.616,2.616,0,0,1,35.018,40.143Zm10.288,5.972h0a1.847,1.847,0,0,1-1.833-1.36,14.1,14.1,0,0,1,8.869-5.794C50.568,43.454,47.435,46.114,45.306,46.114Zm-2.9-5.439c1.064-1.892,3.961-3.193,8.337-2.424a15.364,15.364,0,0,0-8.1,5.617,2.974,2.974,0,0,1-.236-3.193Zm10.82-27.257a4.113,4.113,0,0,1-1.36,1.655,5.007,5.007,0,0,1-1.774.887,5.1,5.1,0,0,1-3.252-.177h0a4.41,4.41,0,0,1-.71-.414,4.41,4.41,0,0,1,.414-.71,5.1,5.1,0,0,1,2.72-1.833,4.545,4.545,0,0,1,1.774-.177h.237a4.664,4.664,0,0,1,1.951.769Zm-3.666-3.193c.059-.118.118-.177.177-.3l.118-.236c0-.059.059-.059.059-.118a3.937,3.937,0,0,1,1.833.236,4.537,4.537,0,0,1-.709,1.655h-.887a1.006,1.006,0,0,0-.414.059h-.177c-.177.059-.355.059-.591.118-.3.118-.591.236-.828.355l-.059.059-.709.355-.118.059a4.513,4.513,0,0,0-.65.473L46.489,13a2.8,2.8,0,0,0-.591.591h0c-.177-.059-.355-.059-.473-.118A1.391,1.391,0,0,1,45.543,13H45.6l.177-.059c.118,0,.177-.059.3-.059l.177-.059.3-.118.177-.059.237-.118.177-.059.237-.118.177-.118.237-.177.177-.118a1.038,1.038,0,0,0,.3-.236l.118-.118.355-.355.414-.414c.059-.059.059-.118.118-.177.059-.118.177-.177.237-.3ZM47.257,7.092h0a4.153,4.153,0,0,1,2.069-.355,4.5,4.5,0,0,1-.355,2.128,6.3,6.3,0,0,1-1.123,1.655c-.118.118-.237.177-.3.3A4.784,4.784,0,0,1,44.951,12h-.828v-.828a4.9,4.9,0,0,1,1.478-2.9,4.515,4.515,0,0,1,1.656-1.182ZM45.011,17.262a6.149,6.149,0,1,1-6.149-6.149h0A6.182,6.182,0,0,1,45.011,17.262Zm-1.3-8.455.355-.709.059-.059a4.634,4.634,0,0,0,.3-.828h0c.059-.177.059-.355.118-.591V6.442c0-.059.059-.236.059-.355V5.023a4.537,4.537,0,0,1,1.655-.709,4.747,4.747,0,0,1,.236,1.833l-.118.118-.177.118c-.118.059-.177.118-.3.177l-.177.118c-.118.059-.177.177-.3.236l-.177.118a1.381,1.381,0,0,0-.414.414l-.355.355-.118.118a1.29,1.29,0,0,0-.237.3l-.118.118a1.292,1.292,0,0,0-.177.3v.118a.452.452,0,0,0-.118.3l-.118.118-.118.3-.059.177c-.059.118-.059.177-.118.3,0,.118-.059.118-.059.177a2.561,2.561,0,0,0-.059.3c0,.118,0,.118-.059.177v.059a1.391,1.391,0,0,1-.473.118,1.391,1.391,0,0,1-.118-.473h0a5.574,5.574,0,0,0,.591-.591l.059-.118a2.625,2.625,0,0,0,.473-.65C43.651,8.866,43.71,8.866,43.71,8.807ZM40.221,6.028a5.007,5.007,0,0,1,.887-1.774,4.113,4.113,0,0,1,1.655-1.36,4.122,4.122,0,0,1,.709,2.01,5.806,5.806,0,0,1-.177,2.01,5.23,5.23,0,0,1-1.774,2.72,4.41,4.41,0,0,1-.709.414,4.41,4.41,0,0,1-.414-.709,5.326,5.326,0,0,1-.177-3.311Zm-1.36-3.666A4.668,4.668,0,0,1,39.985,3.84c0,.059-.059.059-.059.118l-.118.177c-.059.118-.118.177-.177.3a.455.455,0,0,1-.118.177,1.968,1.968,0,0,0-.177.355l-.059.177c-.059.177-.118.355-.177.591-.059.177-.059.355-.118.473v.177c0,.118-.059.236-.059.355V8.275l.059.236a.355.355,0,0,0,.059.236l.059.236c0,.059.059.177.059.236s.059.118.059.236v.059l-.355.355-.355-.355V9.339l.059-.177c0-.059.059-.177.059-.236a.217.217,0,0,1,.059-.177,2.561,2.561,0,0,0,.059-.3V6.678a.879.879,0,0,0-.059-.355c-.059-.118,0-.118,0-.177a1.114,1.114,0,0,0-.118-.473c-.059-.177-.118-.414-.177-.591l-.118-.118a.84.84,0,0,0-.118-.355l-.118-.177c-.059-.118-.118-.177-.177-.3,0-.059-.059-.118-.059-.177l-.059-.118A4.668,4.668,0,0,1,38.862,2.362ZM34.25,4.845a4.821,4.821,0,0,1,.709-2.01,4.113,4.113,0,0,1,1.655,1.36A5.007,5.007,0,0,1,37.5,5.969a5.123,5.123,0,0,1-.177,3.252h0a4.41,4.41,0,0,1-.414.709,4.41,4.41,0,0,1-.71-.414A4.526,4.526,0,0,1,34.427,6.8,5.235,5.235,0,0,1,34.25,4.845Zm-2.838-.473a4.146,4.146,0,0,1,1.656.709V6.087a.75.75,0,0,0,.059.355v.177c.059.177.059.355.118.591a3.419,3.419,0,0,0,.3.828.206.206,0,0,1,.059.118l.355.709.059.118a4.513,4.513,0,0,0,.473.65l.059.118a2.8,2.8,0,0,0,.591.591V10.4c-.059.177-.059.355-.118.473a1.392,1.392,0,0,1-.473-.118V10.7a.217.217,0,0,0-.059-.177c0-.118-.059-.177-.059-.3,0-.059-.059-.118-.059-.177a1,1,0,0,0-.118-.3c-.059-.118-.059-.118-.059-.177a1,1,0,0,0-.118-.3L34.013,9.1c-.059-.118-.118-.177-.118-.236-.059-.059-.059-.118-.118-.177s-.118-.177-.177-.236-.059-.118-.118-.177-.118-.177-.237-.3l-.118-.118-.355-.355-.414-.414-.177-.118c-.118-.059-.177-.177-.3-.236l-.118-.177-.3-.177-.118-.118-.177-.059A3.841,3.841,0,0,1,31.412,4.372ZM28.278,6.737a4.5,4.5,0,0,1,2.128.355,6.3,6.3,0,0,1,1.655,1.123c.118.118.177.236.3.3a5.25,5.25,0,0,1,1.182,2.6v.828h-.828a4.9,4.9,0,0,1-2.9-1.478,5.46,5.46,0,0,1-1.123-1.655h0A3.634,3.634,0,0,1,28.278,6.737Zm-.532,2.838c0,.059.059.059.059.118l.118.177c.059.118.118.177.177.3l.118.177c.059.118.177.177.236.3.059.059.059.118.118.177a1.381,1.381,0,0,0,.414.414l.355.355.118.118c.059.059.177.118.3.236l.177.118.236.177.177.118.236.118.177.059L31,12.65l.177.059.3.118.177.059.3.059.177.059h.059a1.392,1.392,0,0,1,.118.473,1.392,1.392,0,0,1-.473.118h-.059A2.8,2.8,0,0,0,31.175,13l-.118-.059a2.625,2.625,0,0,0-.65-.473l-.118-.059-.709-.355L29.52,12a4.634,4.634,0,0,0-.828-.3,3,3,0,0,0-.769-.118h-.236c-.177,0-.355-.059-.591-.059h-.532a4.537,4.537,0,0,1-.71-1.655,4.366,4.366,0,0,1,1.892-.3Zm-1.3,3.134a5.356,5.356,0,0,1,1.951.177,5.23,5.23,0,0,1,2.72,1.774,4.41,4.41,0,0,1,.414.71,4.41,4.41,0,0,1-.71.414,5.1,5.1,0,0,1-3.252.177,5.007,5.007,0,0,1-1.774-.887,4.113,4.113,0,0,1-1.36-1.655,4.122,4.122,0,0,1,2.01-.709ZM23.9,17.262a4.668,4.668,0,0,1,1.478-1.123l.118.059c.059.059.118.059.177.118.118.059.177.118.3.177l.177.118.355.177.177.059c.177.059.355.118.591.177s.532.118.769.177h.118a2.879,2.879,0,0,0,.709.059h.591c.177,0,.355-.059.532-.059l.177-.059a.84.84,0,0,0,.355-.118l.177-.059.118-.059.355.355-.355.355h-.059l-.177-.059-.3-.059-.177-.059c-.118,0-.177-.059-.3-.059H28.337a.75.75,0,0,0-.355.059h-.118a1.114,1.114,0,0,0-.473.118c-.177.059-.355.118-.591.177l-.177.059-.355.177-.177.118-.3.177-.177.118-.118.059A5.612,5.612,0,0,1,23.9,17.262Zm.532,3.9a4.113,4.113,0,0,1,1.36-1.655,5.007,5.007,0,0,1,1.774-.887,5.1,5.1,0,0,1,3.252.177h0a4.41,4.41,0,0,1,.709.414,4.41,4.41,0,0,1-.414.709A4.7,4.7,0,0,1,28.4,21.7a5.476,5.476,0,0,1-1.951.177A4.821,4.821,0,0,1,24.435,21.164ZM28.1,24.357c-.059.118-.118.177-.177.3l-.059.177-.059.118a3.937,3.937,0,0,1-1.833-.236,4.537,4.537,0,0,1,.709-1.655H27.1A2.879,2.879,0,0,0,27.805,23h.177a3.61,3.61,0,0,0,.769-.177,5.2,5.2,0,0,0,.887-.3l.118-.059.709-.355.118-.059a2.625,2.625,0,0,0,.65-.473l.118-.059a5.575,5.575,0,0,0,.591-.591h0c.177.059.355.059.473.118a1.391,1.391,0,0,1-.118.473H32.24l-.177.059c-.118,0-.177.059-.3.059l-.177.059-.3.118-.177.059-.236.118-.3.118-.236.118-.177.118-.236.177-.177.118a1.038,1.038,0,0,0-.3.236l-.059.059-.355.355-.414.414c-.059.059-.059.118-.118.177-.059.118-.177.177-.237.3Zm2.306,3.134h0a4.153,4.153,0,0,1-2.069.355,4.5,4.5,0,0,1,.355-2.128,6.3,6.3,0,0,1,1.123-1.655,5.842,5.842,0,0,1,2.069-1.3c.237-.059.532-.118.769-.177h.828v.828h0a8.643,8.643,0,0,1-.3,1.182h0a4.42,4.42,0,0,1-.887,1.419c-.118.118-.177.236-.3.3a4.506,4.506,0,0,1-1.6,1.182Zm3.607-1.715a3.974,3.974,0,0,0-.355.709c0,.059,0,.059-.059.118a4.634,4.634,0,0,0-.3.828c-.059.177-.059.355-.118.591V28.2c0,.118-.059.237-.059.355V29.56a4.537,4.537,0,0,1-1.655.709,4.747,4.747,0,0,1-.237-1.833l.118-.118.177-.118c.118-.059.177-.118.3-.177L32,27.9c.118-.059.177-.177.3-.237l.177-.118a1.381,1.381,0,0,0,.414-.414l.355-.355.118-.118.236-.3c.059-.059.059-.118.118-.177s.118-.177.177-.236.059-.118.118-.177a.448.448,0,0,0,.118-.236l.059-.177c.059-.118.059-.177.118-.3a.217.217,0,0,0,.059-.177,1,1,0,0,1,.118-.3c0-.118.059-.118.059-.177,0-.118.059-.177.059-.3,0-.059.059-.118.059-.177v-.059a1.391,1.391,0,0,1,.473-.118,1.392,1.392,0,0,1,.118.473h0a5.574,5.574,0,0,0-.591.591l-.059.118a2.625,2.625,0,0,0-.473.65ZM37.5,28.554a5.007,5.007,0,0,1-.887,1.774,4.113,4.113,0,0,1-1.655,1.36,4.122,4.122,0,0,1-.709-2.01,5.77,5.77,0,0,1,.118-2.01,5.274,5.274,0,0,1,1.182-2.188l.059-.059c.177-.177.355-.3.532-.473a4.41,4.41,0,0,1,.709-.414,4.41,4.41,0,0,1,.414.709,4.934,4.934,0,0,1,.236,3.311Zm1.36,3.666a4.668,4.668,0,0,1-1.123-1.478c0-.059.059-.059.059-.118l.118-.177c.059-.118.118-.177.177-.3a.454.454,0,0,1,.118-.177,1.969,1.969,0,0,0,.177-.355l.059-.177c.059-.177.118-.355.177-.591.059-.177.059-.355.118-.473V28.2c0-.118.059-.236.059-.355V26.308l-.059-.237a.356.356,0,0,0-.059-.236l-.059-.236c0-.059-.059-.177-.059-.237s-.059-.118-.059-.236v-.059l.355-.355.355.355v.059c0,.059-.059.118-.059.177a2.561,2.561,0,0,0-.059.3c0,.118,0,.118-.059.177,0,.118-.059.177-.059.3v1.6a.879.879,0,0,0,.059.355c.059.118,0,.118,0,.177a1.114,1.114,0,0,0,.118.473c.059.177.118.355.177.591l.059.177.177.355.118.177c.059.118.118.177.177.3.059.059.059.118.118.177l.059.118A3.984,3.984,0,0,1,38.862,32.22Zm4.612-2.542a4.821,4.821,0,0,1-.709,2.01,4.113,4.113,0,0,1-1.655-1.36,5.007,5.007,0,0,1-.887-1.774c-.059-.118-.059-.3-.118-.414a4.679,4.679,0,0,1,.3-2.838,4.41,4.41,0,0,1,.414-.709,4.41,4.41,0,0,1,.709.414,4.7,4.7,0,0,1,1.774,2.72A5.476,5.476,0,0,1,43.473,29.678Zm2.838.532a4.146,4.146,0,0,1-1.655-.709V28.5a.75.75,0,0,0-.059-.355v-.177c-.059-.177-.059-.355-.118-.591a3.419,3.419,0,0,0-.3-.828l-.118-.059-.355-.709-.059-.118a2.625,2.625,0,0,0-.473-.65l-.059-.118a5.574,5.574,0,0,0-.591-.591h0c.059-.177.059-.355.118-.473a1.391,1.391,0,0,1,.473.118V24a.217.217,0,0,0,.059.177c0,.118.059.177.059.3,0,.059.059.118.059.177a1,1,0,0,0,.118.3c.059.118.059.118.059.177a1,1,0,0,0,.118.3l.059.177a.448.448,0,0,1,.118.236c0,.059.059.118.118.177s.118.177.177.236.059.118.118.177.118.177.236.3l.118.118.355.355.414.414.177.118c.118.059.177.177.3.236l.177.118.3.177.177.118.118.059A4.746,4.746,0,0,1,46.311,30.21Zm3.075-2.365a4.5,4.5,0,0,1-2.128-.355A6.3,6.3,0,0,1,45.6,26.367c-.118-.118-.177-.236-.3-.3a4.867,4.867,0,0,1-1.182-3.429h.828a4.9,4.9,0,0,1,2.9,1.478,5.46,5.46,0,0,1,1.123,1.655h0A3.54,3.54,0,0,1,49.386,27.845Zm.591-2.9c0-.059-.059-.059-.059-.118l-.118-.177c-.059-.118-.118-.177-.177-.3L49.5,24.12c-.059-.118-.177-.177-.236-.3-.059-.059-.059-.118-.118-.177a1.381,1.381,0,0,0-.414-.414l-.355-.355-.118-.118c-.059-.059-.177-.118-.3-.237l-.177-.118-.237-.059-.177-.118-.236-.118-.177-.059-.236-.118-.177-.118-.3-.059-.177-.059-.3-.059-.177-.059h-.059a1.391,1.391,0,0,1-.118-.473,1.392,1.392,0,0,1,.473-.118h.059a2.8,2.8,0,0,0,.591.591l.118.059a2.625,2.625,0,0,0,.65.473l.118.059.71.355.059.059a4.634,4.634,0,0,0,.828.3c.237.059.532.118.769.177h.118a2.879,2.879,0,0,0,.709.059h.414a4.537,4.537,0,0,1,.71,1.655,4.435,4.435,0,0,1-1.774.177Zm1.3-3.074a4.635,4.635,0,0,1-2.01-.118,5.23,5.23,0,0,1-2.72-1.774,4.41,4.41,0,0,1-.414-.709,4.41,4.41,0,0,1,.71-.414,5.1,5.1,0,0,1,3.252-.177,5.007,5.007,0,0,1,1.774.887,4.113,4.113,0,0,1,1.36,1.655,5.435,5.435,0,0,1-1.951.65Zm1.064-3.488-.177-.059c-.059-.059-.118-.059-.177-.118-.118-.059-.177-.118-.3-.177l-.177-.118-.355-.177-.177-.059c-.177-.059-.355-.118-.591-.177s-.473-.118-.769-.177H49.5a2.879,2.879,0,0,0-.709-.059h-.769l-.3.118-.237.059-.3.059-.237.059-.177.059h-.059a1.568,1.568,0,0,0-.355-.3l.355-.355.118.059.177.059.355.118h.118a1.637,1.637,0,0,0,.532.059h.65a2.879,2.879,0,0,0,.709-.059H49.5a3.992,3.992,0,0,0,.828-.118c.177-.059.355-.118.591-.177l.177-.059.355-.177.177-.118.3-.177.177-.118.118-.059a4.265,4.265,0,0,1,1.419,1.123,3.331,3.331,0,0,1-1.3,1.064Z" transform="translate(125.774 0)" fill="#fff"/>
    <path id="Caminho_2" data-name="Caminho 2" d="M46.261,33.042a.522.522,0,0,0-.769.236h0l-.65,1.123a.569.569,0,0,0,1.005.532h0l.65-1.064a.655.655,0,0,0-.236-.828Z" transform="translate(116.778 -13.002)" fill="#fff"/>
    <path id="Caminho_3" data-name="Caminho 3" d="M52.479,22.271a.522.522,0,0,0,.769-.236h0l.65-1.123a.569.569,0,1,0-1.005-.532l-.65,1.064a.6.6,0,0,0,.236.828Z" transform="translate(113.753 -7.729)" fill="#fff"/>
    <path id="Caminho_4" data-name="Caminho 4" d="M43.789,30.9a.6.6,0,0,0-.769-.236l-1.123.65a.569.569,0,0,0,.532,1.005l1.064-.65a.508.508,0,0,0,.3-.769Z" transform="translate(118.068 -12.039)" fill="#fff"/>
    <path id="Caminho_5" data-name="Caminho 5" d="M55.92,23.261l-1.123.65a.6.6,0,0,0-.237.769.621.621,0,0,0,.532.3.533.533,0,0,0,.3-.059l1.064-.65a.569.569,0,1,0-.532-1.005Z" transform="translate(112.795 -9.014)" fill="#fff"/>
    <path id="Caminho_6" data-name="Caminho 6" d="M42.924,27.991a.592.592,0,0,0-.591-.591H41.091a.591.591,0,0,0,0,1.182h1.242A.559.559,0,0,0,42.924,27.991Z" transform="translate(118.519 -10.73)" fill="#fff"/>
    <path id="Caminho_7" data-name="Caminho 7" d="M55.4,27.991a.592.592,0,0,0,.591.591h1.242a.591.591,0,1,0,0-1.182H55.991A.592.592,0,0,0,55.4,27.991Z" transform="translate(112.428 -10.73)" fill="#fff"/>
    <path id="Caminho_8" data-name="Caminho 8" d="M41.918,24.207l1.064.65a.443.443,0,0,0,.3.059.592.592,0,0,0,.591-.591.621.621,0,0,0-.3-.532l-1.064-.65a.522.522,0,0,0-.769.236A.6.6,0,0,0,41.918,24.207Z" transform="translate(118.046 -8.955)" fill="#fff"/>
    <path id="Caminho_9" data-name="Caminho 9" d="M56.475,31.334l-1.064-.591a.569.569,0,0,0-.532,1.005l1.064.65a.522.522,0,0,0,.769-.237.6.6,0,0,0-.236-.828Z" transform="translate(112.772 -12.062)" fill="#fff"/>
    <path id="Caminho_10" data-name="Caminho 10" d="M45.511,22.053a.6.6,0,0,0,.769.236h0a.6.6,0,0,0,.237-.769l-.65-1.123a.569.569,0,0,0-1.005.532h0Z" transform="translate(116.76 -7.747)" fill="#fff"/>
    <path id="Caminho_11" data-name="Caminho 11" d="M53.266,33.2a.569.569,0,0,0-1.005.532l.65,1.123a.569.569,0,1,0,1.005-.532h0Z" transform="translate(113.735 -12.979)" fill="#fff"/>
    <path id="Caminho_12" data-name="Caminho 12" d="M49.591,21.424a.592.592,0,0,0,.591-.591V19.591a.591.591,0,1,0-1.182,0v1.242A.592.592,0,0,0,49.591,21.424Z" transform="translate(115.044 -7.296)" fill="#fff"/>
    <path id="Caminho_13" data-name="Caminho 13" d="M49.591,33.8a.592.592,0,0,0-.591.591v1.242a.591.591,0,0,0,1.182,0V34.391A.592.592,0,0,0,49.591,33.8Z" transform="translate(115.044 -13.346)" fill="#fff"/>
    <path id="Caminho_14" data-name="Caminho 14" d="M48.283,24.3a2.483,2.483,0,1,0,2.483,2.483A2.5,2.5,0,0,0,48.283,24.3Zm0,3.725a1.3,1.3,0,1,1,1.3-1.3,1.312,1.312,0,0,1-1.3,1.3Z" transform="translate(116.352 -9.463)" fill="#fff"/>
  </g>
</svg>
