<svg xmlns="http://www.w3.org/2000/svg" width="63.99" height="64.001" viewBox="0 0 63.99 64.001">
  <g id="noun_Search_1689625" transform="translate(-1.01)">
    <g id="Grupo_60" data-name="Grupo 60" transform="translate(1)">
      <g id="Grupo_59" data-name="Grupo 59">
        <g id="Grupo_51" data-name="Grupo 51">
          <path id="Caminho_41" data-name="Caminho 41" d="M23,46A23,23,0,0,1,6.736,6.738,23,23,0,1,1,39.263,39.264,22.852,22.852,0,0,1,23,46ZM23,2A21,21,0,0,0,8.15,37.85a21,21,0,0,0,29.7-29.7A20.868,20.868,0,0,0,23,2Z" fill="#fff"/>
        </g>
        <g id="Grupo_52" data-name="Grupo 52">
          <path id="Caminho_42" data-name="Caminho 42" d="M23,42A19,19,0,0,1,9.564,9.566a19,19,0,1,1,26.871,26.87A18.875,18.875,0,0,1,23,42ZM23,6a17,17,0,1,0,12.021,4.979A16.891,16.891,0,0,0,23,6Z" fill="#fff"/>
        </g>
        <g id="Grupo_53" data-name="Grupo 53">
          <path id="Caminho_43" data-name="Caminho 43" d="M41.092,46.335a1,1,0,0,1-.707-.293l-4.8-4.8A1,1,0,0,1,37,39.827l4.8,4.8a1,1,0,0,1-.707,1.707Z" fill="#fff"/>
        </g>
        <g id="Grupo_54" data-name="Grupo 54">
          <path id="Caminho_44" data-name="Caminho 44" d="M45.335,42.092a1,1,0,0,1-.707-.293l-4.8-4.8a1,1,0,0,1,1.414-1.414l4.8,4.8a1,1,0,0,1-.707,1.707Z" fill="#fff"/>
        </g>
        <g id="Grupo_55" data-name="Grupo 55">
          <path id="Caminho_45" data-name="Caminho 45" d="M39.678,47.749a1,1,0,0,1-.707-1.707l7.07-7.07a1,1,0,0,1,1.414,1.414l-7.07,7.07A1,1,0,0,1,39.678,47.749Z" fill="#fff"/>
        </g>
        <g id="Grupo_56" data-name="Grupo 56">
          <path id="Caminho_46" data-name="Caminho 46" d="M54.465,62.535a1,1,0,0,1-.707-.293L38.971,47.456a1,1,0,0,1,1.414-1.414L55.172,60.828a1,1,0,0,1-.707,1.707Z" fill="#fff"/>
        </g>
        <g id="Grupo_57" data-name="Grupo 57">
          <path id="Caminho_47" data-name="Caminho 47" d="M61.534,55.465a1,1,0,0,1-.707-.293L46.041,40.386a1,1,0,0,1,1.414-1.414L62.241,53.758a1,1,0,0,1-.707,1.707Z" fill="#fff"/>
        </g>
        <g id="Grupo_58" data-name="Grupo 58">
          <path id="Caminho_48" data-name="Caminho 48" d="M58,64h0a5.957,5.957,0,0,1-4.241-1.759,1,1,0,0,1,1.414-1.414A3.976,3.976,0,0,0,58,62h0a4,4,0,0,0,2.826-6.829,1,1,0,0,1,1.414-1.414A6,6,0,0,1,58,64Z" fill="#fff"/>
        </g>
      </g>
    </g>
  </g>
</svg>
