<svg xmlns="http://www.w3.org/2000/svg" width="90" height="90" viewBox="0 0 90 90">
  <g id="noun_User_305942" transform="translate(-5 -5)">
    <g id="Grupo_61" data-name="Grupo 61">
      <path id="Caminho_49" data-name="Caminho 49" d="M50,5A45,45,0,1,0,95,50,45.051,45.051,0,0,0,50,5Zm0,86.537A41.537,41.537,0,1,1,91.537,50,41.585,41.585,0,0,1,50,91.537Z" fill="#fff"/>
      <path id="Caminho_50" data-name="Caminho 50" d="M50,54.795c9.6,0,16.12-7.783,16.12-17.382S59.6,20.032,50,20.032s-16.126,7.78-16.126,17.381S40.4,54.795,50,54.795Z" fill="#fff"/>
      <path id="Caminho_51" data-name="Caminho 51" d="M63.022,53.654a19.7,19.7,0,0,1-26.045,0A27.393,27.393,0,0,0,22.71,76.513a37.986,37.986,0,0,0,54.582,0A27.4,27.4,0,0,0,63.022,53.654Z" fill="#fff"/>
    </g>
  </g>
</svg>
